{"title":"The Congress (2013) BD720P CtrlHD","uid":14439878,"size":7335802067,"categoryP":"video","categoryS":"hd___movies","magnet":"?xt=urn:btih:d7d11a59d377c49cf7aab0741f77a7fa153a9478&amp;dn=The+Congress+%282013%29+BD720P+CtrlHD&amp;tr=udp%3A%2F%2Ftracker.leechers-paradise.org%3A6969&amp;tr=udp%3A%2F%2Fzer0day.ch%3A1337&amp;tr=udp%3A%2F%2Fopen.demonii.com%3A1337&amp;tr=udp%3A%2F%2Ftracker.coppersurfer.tk%3A6969&amp;tr=udp%3A%2F%2Fexodus.desync.com%3A6969","seeders":0,"leechers":1,"uploader":"Horisarte","files":1,"time":1461669902,"description":"http://www.imdb.com/title/tt1821641/\r\n\r\nGeneral\r\nUnique ID : 239609422458363003424480453139164277084 (0xB443189E6659E53D89CBD13E579BA95C)\r\nComplete name : D:kirovtorrentThe.Congress.2013.720p.BluRay.DTS.x264-CtrlHD.mkv\r\nFormat : Matroska\r\nFormat version : Version 4 / Version 2\r\nFile size : 6.83 GiB\r\nDuration : 2h 2mn\r\nOverall bit rate : 7 958 Kbps\r\nEncoded date : UTC 2014-05-29 17:34:26\r\nWriting application : mkvmerge v6.8.0 ('Theme for Great Cities') 64bit built on Mar 2 2014 21:34:26\r\nWriting library : libebml v1.3.0 + libmatroska v1.4.1\r\n\r\nVideo\r\nID : 1\r\nFormat : AVC\r\nFormat/Info : Advanced Video Codec\r\nFormat profile :   \r\nFormat settings, CABAC : Yes\r\nFormat settings, ReFrames : 9 frames\r\nCodec ID : V_MPEG4/ISO/AVC\r\nDuration : 2h 2mn\r\nBit rate : 5 907 Kbps\r\nWidth : 1 280 pixels\r\nHeight : 692 pixels\r\nDisplay aspect ratio : 1.85:1\r\nFrame rate mode : Constant\r\nFrame rate : 23.976 fps\r\nColor space : YUV\r\nChroma subsampling : 4:2:0\r\nBit depth : 8 bits\r\nScan type : Progressive\r\nBits/(Pixel*Frame) : 0.278\r\nStream size : 5.07 GiB (74%)\r\nTitle : WSmit60 &amp; CtrlHD\r\nWriting library : x264 core 142 r2409+42 04be48a tMod [   X86_64]\r\nEncoding settings : cabac=1 / ref=9 / deblock=1:-3:-3 / analyse=0x3:0x113 / me=umh / subme=10 / psy=1 / fade_compensate=0.00 / psy_rd=1.05:0.00 / mixed_ref=1 / me_range=32 / chroma_me=1 / trellis=2 / 8x8dct=1 / cqm=0 / deadzone=21,11 / fast_pskip=0 / chroma_qp_offset=-2 / threads=6 / lookahead_threads=1 / sliced_threads=0 / nr=0 / decimate=0 / interlaced=0 / bluray_compat=0 / constrained_intra=0 / fgo=0 / bframes=9 / b_pyramid=2 / b_adapt=2 / b_bias=0 / direct=3 / weightb=1 / open_gop=0 / weightp=2 / keyint=250 / keyint_min=23 / scenecut=40 / intra_refresh=0 / rc_lookahead=60 / rc=crf / mbtree=0 / crf=18.0000 / qcomp=0.70 / qpmin=0:0:0 / qpmax=69:69:69 / qpstep=4 / vbv_maxrate=62500 / vbv_bufsize=78125 / crf_max=0.0 / nal_hrd=none / filler=0 / ip_ratio=1.30 / pb_ratio=1.20 / aq=1:0.80 / aq-sensitivity=10.00 / aq-factor=1.00:1.00:1.00 / aq2=0 / aq3=0\r\nLanguage : English\r\nDefault : No\r\nForced : No\r\n\r\nAudio #1\r\nID : 2\r\nFormat : AC-3\r\nFormat/Info : Audio Coding 3\r\nMode extension : CM (complete main)\r\nFormat settings, Endianness : Big\r\nCodec ID : A_AC3\r\nDuration : 2h 2mn\r\nBit rate mode : Constant\r\nBit rate : 192 Kbps\r\nChannel(s) : 2 channels\r\nChannel positions : Front: L R\r\nSampling rate : 48.0 KHz\r\nBit depth : 16 bits\r\nCompression mode : Lossy\r\nStream size : 169 MiB (2%)\r\nTitle : MVO (Pozitiv) AC3 2.0 @ 192k\r\nLanguage : Russian\r\nDefault : Yes\r\nForced : No\r\n\r\nAudio #2\r\nID : 3\r\nFormat : DTS\r\nFormat/Info : Digital Theater Systems\r\nMode : 16\r\nFormat settings, Endianness : Big\r\nCodec ID : A_DTS\r\nDuration : 2h 2mn\r\nBit rate mode : Constant\r\nBit rate : 1 509 Kbps\r\nChannel(s) : 6 channels\r\nChannel positions : Front: L C R, Side: L R, LFE\r\nSampling rate : 48.0 KHz\r\nBit depth : 24 bits\r\nCompression mode : Lossy\r\nStream size : 1.30 GiB (19%)\r\nTitle : ENG DTS 5.1 @ 1509k\r\nLanguage : English\r\nDefault : No\r\nForced : No\r\n\r\nAudio #3\r\nID : 4\r\nFormat : AC-3\r\nFormat/Info : Audio Coding 3\r\nMode extension : CM (complete main)\r\nFormat settings, Endianness : Big\r\nCodec ID : A_AC3\r\nDuration : 2h 2mn\r\nBit rate mode : Constant\r\nBit rate : 192 Kbps\r\nChannel(s) : 2 channels\r\nChannel positions : Front: L R\r\nSampling rate : 48.0 KHz\r\nBit depth : 16 bits\r\nCompression mode : Lossy\r\nStream size : 169 MiB (2%)\r\nTitle : Commentary by Director Ari Folman AC3 2.0 @ 192k\r\nLanguage : English\r\nDefault : No\r\nForced : No\r\n\r\nText #1\r\nID : 5\r\nFormat : UTF-8\r\nCodec ID : S_TEXT/UTF8\r\nCodec ID/Info : UTF-8 Plain Text\r\nTitle : Don_Leprikon v.1\r\nLanguage : Russian\r\nDefault : No\r\nForced : No\r\n\r\nText #2\r\nID : 6\r\nFormat : UTF-8\r\nCodec ID : S_TEXT/UTF8\r\nCodec ID/Info : UTF-8 Plain Text\r\nTitle : Don_Leprikon v.2\r\nLanguage : Russian\r\nDefault : No\r\nForced : No\r\n\r\nText #3\r\nID : 7\r\nFormat : UTF-8\r\nCodec ID : S_TEXT/UTF8\r\nCodec ID/Info : UTF-8 Plain Text\r\nLanguage : English\r\nDefault : No\r\nForced : No\r\n\r\nText #4\r\nID : 8\r\nFormat : UTF-8\r\nCodec ID : S_TEXT/UTF8\r\nCodec ID/Info : UTF-8 Plain Text\r\nLanguage : German\r\nDefault : No\r\nForced : No\r\n\r\nText #5\r\nID : 9\r\nFormat : UTF-8\r\nCodec ID : S_TEXT/UTF8\r\nCodec ID/Info : UTF-8 Plain Text\r\nLanguage : French\r\nDefault : No\r\nForced : No\r\n\r\nText #6\r\nID : 10\r\nFormat : UTF-8\r\nCodec ID : S_TEXT/UTF8\r\nCodec ID/Info : UTF-8 Plain Text\r\nTitle : Commentary\r\nLanguage : French\r\nDefault : No\r\nForced : No","torrent":{"xt":"urn:btih:d7d11a59d377c49cf7aab0741f77a7fa153a9478","amp;dn":"The+Congress+%282013%29+BD720P+CtrlHD","amp;tr":["udp%3A%2F%2Ftracker.leechers-paradise.org%3A6969","udp%3A%2F%2Fzer0day.ch%3A1337","udp%3A%2F%2Fopen.demonii.com%3A1337","udp%3A%2F%2Ftracker.coppersurfer.tk%3A6969","udp%3A%2F%2Fexodus.desync.com%3A6969"],"infoHash":"d7d11a59d377c49cf7aab0741f77a7fa153a9478","infoHashBuffer":{"type":"Buffer","data":[215,209,26,89,211,119,196,156,247,170,176,116,31,119,167,250,21,58,148,120]},"announce":[],"urlList":[]}}